# xmcd
#
# Track frame offsets: 
#        150
#        10597
#        21870
#        33190
#        44683
#        55688
#        66754
#        77195
#        90006
#        103125
#        115802
#        125667
#        135172
#        145933
#        157165
#        169165
#        180426
#        191415
#        201258
#        212436
#
# Disc length: 3086 seconds
#
# Revision: 4
# Processed by: cddbd v1.5.2PL0 Copyright (c) Steve Scherf et al.
# Submitted via: ExactAudioCopy v1.0b2
#
DISCID=070c0c14
DTITLE=Connie Smith - The Essential Connie Smith
DYEAR=1996
DGENRE=Country
TTITLE0=Once a Day
TTITLE1=Nobody but a Fool (Would Love You)
TTITLE2=I Can't Remember
TTITLE3=Cry, Cry, Cry
TTITLE4=Then and Only Then
TTITLE5=If I Talk to Him
TTITLE6=Ain't Had No Lovin'
TTITLE7=The Hurtin's All Over
TTITLE8=I Never Once Stopped Loving You
TTITLE9=You and Your Sweet Love
TTITLE10=Cincinnati, Ohio
TTITLE11=I'll Come Running
TTITLE12=Burning a Hole in My Mind
TTITLE13=Run Away Little Tears
TTITLE14=Ribbon of Darkness
TTITLE15=Just One Time
TTITLE16=Just for What I Am
TTITLE17=Love Is the Look You're Looking For
TTITLE18=If It Ain't Love (Let's Leave It Alone)
TTITLE19=How Great Thou Art
EXTD=YEAR: 1996
EXTT0=
EXTT1=
EXTT2=
EXTT3=
EXTT4=
EXTT5=
EXTT6=
EXTT7=
EXTT8=
EXTT9=
EXTT10=
EXTT11=
EXTT12=
EXTT13=
EXTT14=
EXTT15=
EXTT16=
EXTT17=
EXTT18=
EXTT19=
PLAYORDER=
